<svg width="60" height="60" viewBox="0 0 60 60" fill="none" xmlns="http://www.w3.org/2000/svg">
<path d="M8.41071 22.0896C8.41071 10.1856 18.0963 0.5 29.9991 0.5C41.9025 0.5 51.5881 10.1856 51.5893 22.0896C51.5893 25.1971 50.9541 28.1594 49.7027 30.8983C44.2104 42.9141 33.6645 55.6259 30.552 59.2467C30.4137 59.4069 30.212 59.4994 29.9997 59.4994C29.7873 59.4994 29.5856 59.4069 29.4473 59.2466C26.3337 55.6253 15.7878 42.9129 10.2973 30.8985C9.04644 28.1594 8.41071 25.1971 8.41071 22.0896ZM18.0251 22.089C18.0251 28.6916 23.3964 34.063 29.9991 34.063C36.6023 34.063 41.9737 28.6916 41.9731 22.089C41.9731 15.4857 36.6017 10.1144 29.9991 10.1144C23.3964 10.1144 18.0251 15.4857 18.0251 22.089Z" fill="none" stroke="white"/>
</svg>
